<?xml version="1.0" encoding="UTF-8"?>
<svg width="700pt" height="700pt" version="1.1" viewBox="0 0 700 700" xmlns="http://www.w3.org/2000/svg" xmlns:xlink="http://www.w3.org/1999/xlink">
 <defs>
  <symbol id="v" overflow="visible">
   <path d="m4.2344-0.25c-0.21875 0.11719-0.44922 0.19922-0.6875 0.25-0.23047 0.0625-0.47656 0.09375-0.73438 0.09375-0.77344 0-1.3828-0.21094-1.8281-0.64062-0.44922-0.4375-0.67188-1.0195-0.67188-1.75 0-0.73828 0.22266-1.3203 0.67188-1.75 0.44531-0.4375 1.0547-0.65625 1.8281-0.65625 0.25781 0 0.50391 0.03125 0.73438 0.09375 0.23828 0.054687 0.46875 0.13672 0.6875 0.25v0.95312c-0.21875-0.14453-0.4375-0.25-0.65625-0.3125-0.21094-0.070312-0.43359-0.10938-0.67188-0.10938-0.41797 0-0.75 0.13672-1 0.40625-0.24219 0.27344-0.35938 0.64844-0.35938 1.125 0 0.46875 0.11719 0.84375 0.35938 1.125 0.25 0.27344 0.58203 0.40625 1 0.40625 0.23828 0 0.46094-0.035156 0.67188-0.10938 0.21875-0.070312 0.4375-0.17969 0.65625-0.32812z"/>
  </symbol>
  <symbol id="d" overflow="visible">
   <path d="m3.1094-2.5156c-0.10547-0.050781-0.20312-0.085937-0.29688-0.10938-0.09375-0.019531-0.1875-0.03125-0.28125-0.03125-0.29297 0-0.51562 0.09375-0.67188 0.28125-0.14844 0.17969-0.21875 0.4375-0.21875 0.78125v1.5938h-1.1094v-3.4531h1.1094v0.5625c0.13281-0.22656 0.29688-0.39453 0.48438-0.5 0.1875-0.10156 0.41016-0.15625 0.67188-0.15625 0.03125 0 0.066406 0.007813 0.10938 0.015625 0.039062 0 0.10156 0.007812 0.1875 0.015625z"/>
  </symbol>
  <symbol id="a" overflow="visible">
   <path d="m3.9844-1.7344v0.3125h-2.5781c0.019531 0.26172 0.10938 0.46094 0.26562 0.59375 0.16406 0.125 0.39453 0.1875 0.6875 0.1875 0.22656 0 0.46094-0.035156 0.70312-0.10938 0.25-0.070312 0.50391-0.17578 0.76562-0.3125v0.85938c-0.26172 0.09375-0.52734 0.16797-0.79688 0.21875-0.26172 0.050781-0.52344 0.078125-0.78125 0.078125-0.625 0-1.1172-0.15625-1.4688-0.46875-0.34375-0.32031-0.51562-0.77344-0.51562-1.3594 0-0.5625 0.17188-1.0039 0.51562-1.3281 0.34375-0.32031 0.8125-0.48438 1.4062-0.48438 0.53906 0 0.97266 0.16797 1.2969 0.5 0.33203 0.32422 0.5 0.76172 0.5 1.3125zm-1.1406-0.375c0-0.20703-0.0625-0.375-0.1875-0.5-0.11719-0.13281-0.27344-0.20312-0.46875-0.20312-0.21875 0-0.39844 0.0625-0.53125 0.1875-0.125 0.11719-0.21094 0.28906-0.25 0.51562z"/>
  </symbol>
  <symbol id="e" overflow="visible">
   <path d="m2.0781-1.5625c-0.23047 0-0.40234 0.042969-0.51562 0.125-0.11719 0.074219-0.17188 0.1875-0.17188 0.34375 0 0.13672 0.046875 0.24609 0.14062 0.32812 0.09375 0.085937 0.22266 0.125 0.39062 0.125 0.20703 0 0.37891-0.070313 0.51562-0.21875 0.14453-0.15625 0.21875-0.34766 0.21875-0.57812v-0.125zm1.6875-0.40625v1.9688h-1.1094v-0.51562c-0.14844 0.21094-0.3125 0.36719-0.5 0.46875-0.1875 0.09375-0.41406 0.14062-0.67188 0.14062-0.36719 0-0.66406-0.10156-0.89062-0.3125-0.21875-0.20703-0.32812-0.47656-0.32812-0.8125 0-0.40625 0.14062-0.70312 0.42188-0.89062 0.28125-0.19531 0.71875-0.29688 1.3125-0.29688h0.65625v-0.078125c0-0.17578-0.070312-0.30469-0.20312-0.39062-0.13672-0.082031-0.35547-0.125-0.65625-0.125-0.23047 0-0.44922 0.027344-0.65625 0.078125-0.19922 0.042969-0.38672 0.10938-0.5625 0.20312v-0.84375c0.23828-0.050781 0.47266-0.09375 0.70312-0.125 0.23828-0.03125 0.47656-0.046875 0.71875-0.046875 0.625 0 1.0703 0.125 1.3438 0.375 0.28125 0.24219 0.42188 0.64062 0.42188 1.2031z"/>
  </symbol>
  <symbol id="c" overflow="visible">
   <path d="m1.7344-4.4375v0.98438h1.1406v0.78125h-1.1406v1.4688c0 0.15625 0.03125 0.26562 0.09375 0.32812 0.070313 0.054688 0.20312 0.078125 0.39062 0.078125h0.5625v0.79688h-0.95312c-0.42969 0-0.73438-0.085938-0.92188-0.26562-0.17969-0.1875-0.26562-0.5-0.26562-0.9375v-1.4688h-0.5625v-0.78125h0.5625v-0.98438z"/>
  </symbol>
  <symbol id="k" overflow="visible">
   <path d="m2.8906-2.9531v-1.8594h1.1094v4.8125h-1.1094v-0.5c-0.15625 0.21094-0.32812 0.35938-0.51562 0.45312-0.17969 0.09375-0.38672 0.14062-0.625 0.14062-0.42969 0-0.78125-0.16406-1.0625-0.5-0.27344-0.34375-0.40625-0.78516-0.40625-1.3281 0-0.53125 0.13281-0.96094 0.40625-1.2969 0.28125-0.34375 0.63281-0.51562 1.0625-0.51562 0.23828 0 0.44531 0.054687 0.625 0.15625 0.1875 0.09375 0.35938 0.24219 0.51562 0.4375zm-0.73438 2.2344c0.23828 0 0.42188-0.082031 0.54688-0.25 0.125-0.17578 0.1875-0.42969 0.1875-0.76562 0-0.32031-0.0625-0.56641-0.1875-0.73438-0.125-0.17578-0.30859-0.26562-0.54688-0.26562-0.24219 0-0.42188 0.089844-0.54688 0.26562-0.11719 0.16797-0.17188 0.41406-0.17188 0.73438 0 0.33594 0.054688 0.58984 0.17188 0.76562 0.125 0.16797 0.30469 0.25 0.54688 0.25z"/>
  </symbol>
  <symbol id="j" overflow="visible">
   <path d="m2.375-0.71875c0.23828 0 0.42188-0.082031 0.54688-0.25 0.125-0.17578 0.1875-0.42969 0.1875-0.76562 0-0.32031-0.0625-0.56641-0.1875-0.73438-0.125-0.17578-0.30859-0.26562-0.54688-0.26562-0.24219 0-0.42188 0.089844-0.54688 0.26562-0.125 0.16797-0.1875 0.41406-0.1875 0.73438 0 0.33594 0.0625 0.58984 0.1875 0.76562 0.125 0.16797 0.30469 0.25 0.54688 0.25zm-0.73438-2.2344c0.14453-0.19531 0.3125-0.34375 0.5-0.4375 0.1875-0.10156 0.39844-0.15625 0.64062-0.15625 0.42578 0 0.77344 0.17188 1.0469 0.51562 0.28125 0.33594 0.42188 0.76562 0.42188 1.2969 0 0.54297-0.14062 0.98438-0.42188 1.3281-0.27344 0.33594-0.62109 0.5-1.0469 0.5-0.24219 0-0.45312-0.046875-0.64062-0.14062-0.1875-0.10156-0.35547-0.25391-0.5-0.45312v0.5h-1.1094v-4.8125h1.1094z"/>
  </symbol>
  <symbol id="i" overflow="visible">
   <path d="m0.078125-3.4531h1.1094l0.92188 2.3438 0.79688-2.3438h1.1094l-1.4531 3.7812c-0.14844 0.38281-0.32031 0.64844-0.51562 0.79688-0.19922 0.15625-0.46094 0.23438-0.78125 0.23438h-0.625v-0.71875h0.34375c0.1875 0 0.32031-0.03125 0.40625-0.09375 0.082031-0.0625 0.14844-0.16797 0.20312-0.3125l0.03125-0.09375z"/>
  </symbol>
  <symbol id="h" overflow="visible">
   <path d="m0.57812-4.6094h1.5156l1.0469 2.4688 1.0625-2.4688h1.5156v4.6094h-1.125v-3.375l-1.0625 2.4844h-0.76562l-1.0625-2.4844v3.375h-1.125z"/>
  </symbol>
  <symbol id="u" overflow="visible">
   <path d="m1.4062-1.7656-1.25-1.6875h1.1719l0.70312 1.0156 0.71875-1.0156h1.1719l-1.25 1.6719 1.3125 1.7812h-1.1719l-0.78125-1.0938-0.76562 1.0938h-1.1719z"/>
  </symbol>
  <symbol id="t" overflow="visible">
   <path d="m0.53125-3.4531h1.1094v3.4531h-1.1094zm0-1.3594h1.1094v0.90625h-1.1094z"/>
  </symbol>
  <symbol id="g" overflow="visible">
   <path d="m3.3281-3.3594v0.90625c-0.14844-0.10156-0.29688-0.17578-0.45312-0.21875-0.15625-0.050781-0.3125-0.078125-0.46875-0.078125-0.3125 0-0.55859 0.089844-0.73438 0.26562-0.16797 0.17969-0.25 0.42969-0.25 0.75 0 0.33594 0.082031 0.58984 0.25 0.76562 0.17578 0.17969 0.42188 0.26562 0.73438 0.26562 0.16406 0 0.32812-0.023437 0.48438-0.078125 0.15625-0.050781 0.30078-0.125 0.4375-0.21875v0.89062c-0.17969 0.074219-0.35547 0.125-0.53125 0.15625-0.17969 0.03125-0.35547 0.046875-0.53125 0.046875-0.625 0-1.1172-0.16016-1.4688-0.48438-0.35547-0.32031-0.53125-0.76953-0.53125-1.3438 0-0.5625 0.17578-1.0039 0.53125-1.3281 0.35156-0.32031 0.84375-0.48438 1.4688-0.48438 0.17578 0 0.35156 0.015625 0.53125 0.046875 0.17578 0.03125 0.35156 0.078125 0.53125 0.14062z"/>
  </symbol>
  <symbol id="b" overflow="visible">
   <path d="m2.1719-2.75c-0.24219 0-0.42969 0.089844-0.5625 0.26562-0.125 0.17969-0.1875 0.42969-0.1875 0.75 0 0.33594 0.0625 0.58984 0.1875 0.76562 0.13281 0.17969 0.32031 0.26562 0.5625 0.26562 0.25 0 0.4375-0.085937 0.5625-0.26562 0.125-0.17578 0.1875-0.42969 0.1875-0.76562 0-0.32031-0.0625-0.57031-0.1875-0.75-0.125-0.17578-0.3125-0.26562-0.5625-0.26562zm0-0.79688c0.60156 0 1.0703 0.16406 1.4062 0.48438 0.33203 0.32422 0.5 0.76562 0.5 1.3281 0 0.57422-0.16797 1.0234-0.5 1.3438-0.33594 0.32422-0.80469 0.48438-1.4062 0.48438-0.59375 0-1.0625-0.16016-1.4062-0.48438-0.33594-0.32031-0.5-0.76953-0.5-1.3438 0-0.5625 0.16406-1.0039 0.5-1.3281 0.34375-0.32031 0.8125-0.48438 1.4062-0.48438z"/>
  </symbol>
  <symbol id="f" overflow="visible">
   <path d="m4.0156-2.1094v2.1094h-1.125v-1.6094c0-0.30078-0.007813-0.50781-0.015625-0.625-0.011719-0.11328-0.03125-0.19531-0.0625-0.25-0.042969-0.070313-0.10547-0.125-0.1875-0.15625-0.074219-0.039063-0.15625-0.0625-0.25-0.0625-0.23047 0-0.41406 0.089844-0.54688 0.26562-0.125 0.17969-0.1875 0.42188-0.1875 0.73438v1.7031h-1.1094v-3.4531h1.1094v0.5c0.16406-0.19531 0.34375-0.34375 0.53125-0.4375 0.1875-0.10156 0.39453-0.15625 0.625-0.15625 0.39453 0 0.69531 0.125 0.90625 0.375 0.20703 0.24219 0.3125 0.59375 0.3125 1.0625z"/>
  </symbol>
  <symbol id="s" overflow="visible">
   <path d="m3.2344-3.3594v0.84375c-0.24219-0.09375-0.46875-0.16406-0.6875-0.21875-0.21875-0.050781-0.42969-0.078125-0.625-0.078125-0.21094 0-0.36719 0.027344-0.46875 0.078125-0.10547 0.054687-0.15625 0.13672-0.15625 0.25 0 0.085937 0.035156 0.15234 0.10938 0.20312 0.082031 0.042969 0.22266 0.078125 0.42188 0.10938l0.20312 0.015625c0.5625 0.074219 0.94141 0.19531 1.1406 0.35938 0.19531 0.16797 0.29688 0.42969 0.29688 0.78125 0 0.36719-0.13672 0.64062-0.40625 0.82812-0.27344 0.1875-0.67969 0.28125-1.2188 0.28125-0.23047 0-0.46875-0.023438-0.71875-0.0625-0.24219-0.03125-0.49219-0.082031-0.75-0.15625v-0.84375c0.21875 0.10547 0.44141 0.1875 0.67188 0.25 0.23828 0.054688 0.47656 0.078125 0.71875 0.078125 0.21875 0 0.37891-0.03125 0.48438-0.09375 0.11328-0.0625 0.17188-0.14844 0.17188-0.26562 0-0.10156-0.042969-0.17578-0.125-0.21875-0.074219-0.050781-0.21875-0.085938-0.4375-0.10938l-0.20312-0.03125c-0.49219-0.0625-0.83594-0.17578-1.0312-0.34375-0.19922-0.16406-0.29688-0.42188-0.29688-0.76562 0-0.36328 0.125-0.63281 0.375-0.8125 0.25-0.17578 0.63281-0.26562 1.1562-0.26562 0.20703 0 0.42188 0.015625 0.64062 0.046875 0.22656 0.03125 0.47266 0.078125 0.73438 0.14062z"/>
  </symbol>
  <symbol id="r" overflow="visible">
   <path d="m2.8125-4.8125v0.73438h-0.60938c-0.15625 0-0.26562 0.03125-0.32812 0.09375-0.0625 0.054687-0.09375 0.14844-0.09375 0.28125v0.25h0.9375v0.78125h-0.9375v2.6719h-1.1094v-2.6719h-0.54688v-0.78125h0.54688v-0.25c0-0.375 0.10156-0.64844 0.3125-0.82812 0.20703-0.1875 0.53516-0.28125 0.98438-0.28125z"/>
  </symbol>
  <symbol id="q" overflow="visible">
   <path d="m3.7344-2.8906c0.14453-0.20703 0.3125-0.36719 0.5-0.48438 0.19531-0.11328 0.41016-0.17188 0.64062-0.17188 0.39453 0 0.69531 0.125 0.90625 0.375 0.20703 0.24219 0.3125 0.59375 0.3125 1.0625v2.1094h-1.1094v-1.7969-0.09375-0.125c0-0.23828-0.039063-0.41016-0.10938-0.51562-0.074219-0.11328-0.1875-0.17188-0.34375-0.17188-0.21094 0-0.37109 0.089844-0.48438 0.26562-0.11719 0.16797-0.17969 0.41406-0.1875 0.73438v1.7031h-1.1094v-1.7969c0-0.38281-0.03125-0.62891-0.09375-0.73438-0.0625-0.11328-0.18359-0.17188-0.35938-0.17188-0.21094 0-0.37109 0.089844-0.48438 0.26562-0.11719 0.16797-0.17188 0.41406-0.17188 0.73438v1.7031h-1.1094v-3.4531h1.1094v0.5c0.13281-0.19531 0.28906-0.34375 0.46875-0.4375 0.17578-0.10156 0.36719-0.15625 0.57812-0.15625 0.23828 0 0.44531 0.058594 0.625 0.17188 0.1875 0.11719 0.32812 0.27734 0.42188 0.48438z"/>
  </symbol>
  <symbol id="p" overflow="visible">
   <path d="m4.0156-2.1094v2.1094h-1.125v-1.6094c0-0.30078-0.007813-0.50781-0.015625-0.625-0.011719-0.11328-0.03125-0.19531-0.0625-0.25-0.042969-0.070313-0.10547-0.125-0.1875-0.15625-0.074219-0.039063-0.15625-0.0625-0.25-0.0625-0.23047 0-0.41406 0.089844-0.54688 0.26562-0.125 0.17969-0.1875 0.42188-0.1875 0.73438v1.7031h-1.1094v-4.8125h1.1094v1.8594c0.16406-0.19531 0.34375-0.34375 0.53125-0.4375 0.1875-0.10156 0.39453-0.15625 0.625-0.15625 0.39453 0 0.69531 0.125 0.90625 0.375 0.20703 0.24219 0.3125 0.59375 0.3125 1.0625z"/>
  </symbol>
  <symbol id="o" overflow="visible">
   <path d="m0.57812-4.6094h1.3281l1.6875 3.1562v-3.1562h1.125v4.6094h-1.3281l-1.6875-3.1719v3.1719h-1.125z"/>
  </symbol>
  <symbol id="n" overflow="visible">
   <path d="m0.5-1.3438v-2.1094h1.1094v0.34375c0 0.1875-0.007813 0.42188-0.015625 0.70312v0.5625c0 0.28125 0.003906 0.48438 0.015625 0.60938 0.019531 0.11719 0.050781 0.20312 0.09375 0.26562 0.039063 0.074219 0.097656 0.13281 0.17188 0.17188 0.070312 0.03125 0.15625 0.046875 0.25 0.046875 0.22656 0 0.41016-0.085938 0.54688-0.26562 0.13281-0.17578 0.20312-0.42188 0.20312-0.73438v-1.7031h1.0938v3.4531h-1.0938v-0.5c-0.17969 0.19922-0.35938 0.35156-0.54688 0.45312-0.17969 0.09375-0.38281 0.14062-0.60938 0.14062-0.39844 0-0.69922-0.11719-0.90625-0.35938-0.21094-0.25-0.3125-0.60938-0.3125-1.0781z"/>
  </symbol>
  <symbol id="m" overflow="visible">
   <path d="m0.57812-4.6094h1.9844c0.58203 0 1.0312 0.13281 1.3438 0.39062 0.3125 0.26172 0.46875 0.63281 0.46875 1.1094 0 0.49219-0.15625 0.86719-0.46875 1.125-0.3125 0.26172-0.76172 0.39062-1.3438 0.39062h-0.79688v1.5938h-1.1875zm1.1875 0.85938v1.2812h0.65625c0.23828 0 0.42188-0.050781 0.54688-0.15625 0.125-0.11328 0.1875-0.27344 0.1875-0.48438 0-0.20703-0.0625-0.36328-0.1875-0.46875-0.125-0.11328-0.30859-0.17188-0.54688-0.17188z"/>
  </symbol>
  <symbol id="l" overflow="visible">
   <path d="m0.53125-3.4531h1.1094v3.3906c0 0.46875-0.11719 0.82031-0.34375 1.0625-0.21875 0.23828-0.53906 0.35938-0.95312 0.35938h-0.54688v-0.71875h0.1875c0.20703 0 0.34766-0.046875 0.42188-0.14062 0.082031-0.09375 0.125-0.28125 0.125-0.5625zm0-1.3594h1.1094v0.90625h-1.1094z"/>
  </symbol>
 </defs>
 <g>
  <path d="m287.04 176.73c2.0273-0.015625 3.9492-0.91406 5.2617-2.457 1.3086-1.5469 1.8828-3.5859 1.5703-5.5859-3.8594-23.48-5.0586-50.957-5.2734-69.859-0.0625-3.7812-3.1406-6.8125-6.9219-6.8203h-0.074219c-1.8359 0.027344-3.582 0.78125-4.8594 2.1016-1.2773 1.3164-1.9766 3.0859-1.9453 4.9219 0.27734 19.383 1.4531 47.578 5.4531 71.906h-0.003906c0.55469 3.3281 3.4219 5.7734 6.793 5.793z"/>
  <path d="m280.37 70.035c0-3.8164-3.0898-6.9141-6.9102-6.9219h-31.828c-3.8203 0-6.918 3.1016-6.918 6.9219 0 3.8203 3.0977 6.918 6.918 6.918h31.828c3.8203-0.003906 6.9102-3.1016 6.9102-6.918z"/>
  <path d="m257.51 84.066c-3.7695-0.007812-6.8477 3.0117-6.9102 6.7773l-0.25 12.969c-0.039062 1.8359 0.65625 3.6094 1.9258 4.9297 1.2734 1.3203 3.0195 2.082 4.8516 2.1172h0.14062c3.7656 0 6.8398-3.0156 6.9062-6.7812l0.25391-12.992c0.070312-3.8164-2.9648-6.9688-6.7812-7.0469z"/>
  <path d="m271.2 1.9102c-1.7383-1.6562-4.207-2.293-6.5273-1.6836-0.77344 0.20313-19.23 5.1992-28.211 24.035l-0.22656 0.48047-0.003906 0.003906c-1.957 4.2578-2.6523 8.9883-2.0078 13.633 0.64844 4.6406 2.6094 9 5.6523 12.566 2.5312 2.5664 6.6055 2.7578 9.3672 0.44531 2.7656-2.3125 3.2891-6.3594 1.207-9.3008-2.75-3.2188-3.3828-7.7422-1.6172-11.59l0.15234-0.32812c2.3398-4.8633 5.9023-9.0391 10.336-12.121 0.38281 2.5742 1.2383 5.0547 2.5273 7.3125l0.17578 0.28906c2.5312 4.2773 7.2734 12.219 4.3008 17.27l0.003906 0.003906c-1.8281 3.2812-0.69922 7.4258 2.543 9.3281 3.2383 1.9023 7.4062 0.87109 9.3867-2.3203 7.1094-12.094-0.92187-25.578-4.3516-31.348l-0.16406-0.28906c-1.2656-2.1875-1.1016-7.2227-0.54297-9.9062l-0.003907-0.003906c0.50781-2.3594-0.25-4.8125-1.9961-6.4766z"/>
  <path d="m322.56 280.19 1.5312-1.4805c1.3945-1.2617 2.2188-3.0312 2.2773-4.9062 0.0625-1.8789-0.64063-3.6992-1.9453-5.0469-1.3086-1.3477-3.1055-2.1094-4.9844-2.1055-1.8789 0.007812-3.6719 0.77344-4.9727 2.125l-1.5195 1.4688c-1.3945 1.2578-2.2148 3.0273-2.2812 4.9023-0.0625 1.875 0.63672 3.6992 1.9414 5.0469 1.3047 1.3477 3.1016 2.1094 4.9805 2.1094 1.875 0 3.6719-0.76563 4.9727-2.1133z"/>
  <path d="m221.25 553.08c0 3.8242 3.0977 6.9219 6.918 6.9219h206.65c1.8828 0.082031 3.7188-0.61328 5.082-1.918 1.3633-1.3047 2.1328-3.1094 2.1328-4.9961 0-1.8867-0.76953-3.6914-2.1328-4.9961-1.3633-1.3047-3.1992-1.9961-5.082-1.918h-23.469v-11.613c-0.003907-6.25-2.4922-12.246-6.9141-16.668-4.4219-4.418-10.414-6.9062-16.668-6.9141h-0.15234l-8.0078-120.32h0.003907c5.4336-5.9102 8.4492-13.645 8.4492-21.672v-19.379l45.543-49.188 25.477 21.344c1.7773 1.4844 2.8594 3.6328 3 5.9453 0.13672 2.3086-0.67969 4.5742-2.2656 6.2617l-39.09 41.746c-3.1094 3.3633-8.3477 3.5977-11.738 0.51953-2.8516-2.5469-7.2266-2.3008-9.7734 0.55078-2.5469 2.8516-2.3008 7.2266 0.55078 9.7734 4.3164 3.8984 9.9922 5.9414 15.805 5.6836 5.8086-0.25781 11.285-2.7969 15.238-7.0625l39.09-41.746v-0.003906c4.1719-4.457 6.3242-10.438 5.9531-16.531-0.37109-6.0938-3.2305-11.77-7.9141-15.688l-30.5-25.594c-2.8242-2.3711-7.0117-2.1016-9.5117 0.60547l-39.863 43.012v-22.566c0.27734 0.32812 0.53125 0.68359 0.80859 1 2.5117 2.875 6.8789 3.168 9.7539 0.65625s3.1719-6.8789 0.66016-9.7539c-3.9414-4.6367-7.3359-9.707-10.121-15.117-0.28516-0.53125-0.63672-1.0195-1.0508-1.4531v-13.918c0.011718-9.4805-2.6953-18.762-7.793-26.754-5.1016-7.9883-12.387-14.352-20.988-18.332-1.7969-0.82422-3.5312-1.6445-5.2266-2.5312 7.4375-5.1367 11.766-13.914 11.766-25.301v-28.465l9.3359 0.11328h0.089843c3.707-0.13281 6.6484-3.1641 6.6719-6.8711 0.023438-3.707-2.8789-6.7734-6.582-6.957l-10.309-0.14062-0.003906 0.003906c-0.57812-2.4531-1.4961-4.8164-2.7188-7.0234l7.3359-9.0469 0.003907 0.003906c2.4062-2.9648 1.9531-7.3164-1.0078-9.7227-2.9609-2.4062-7.3164-1.957-9.7227 1.0039l-6.2227 7.5898v0.003906c-2.4453-1.5391-5.1133-2.6797-7.9062-3.3906v-9.1719c0.078125-1.8867-0.61328-3.7227-1.918-5.0859-1.3047-1.3594-3.1094-2.1328-4.9961-2.1328s-3.6914 0.77344-4.9961 2.1328c-1.3086 1.3633-2 3.1992-1.918 5.0859v9.2344c-2.7969 0.71094-5.4648 1.8555-7.9062 3.3906l-6.2227-7.5898h-0.003906c-2.4531-2.8008-6.6797-3.1562-9.5703-0.80469-2.8867 2.3477-3.3984 6.5586-1.1562 9.5312l7.3359 9.0312v0.003906c-1.2266 2.2266-2.1445 4.6094-2.7305 7.082l-3.4648 0.074219-0.003907 0.003906c-3.7031 0.19531-6.5938 3.2812-6.5508 6.9922 0.042969 3.7109 3.0078 6.7266 6.7188 6.832h2.5039v25.305c-2.6172-2.3086-5.0586-4.8086-7.3008-7.4766-1.4688-1.9062-3.8242-2.9062-6.2188-2.6484-2.3906 0.25781-4.4766 1.7383-5.5078 3.9102-4.4766 9.3984-13.082 16.309-19.734 20.543v0.003907c-4.7109-15.152-7.0312-30.941-6.8828-46.809v-32.008c0.082032-1.8828-0.61328-3.7188-1.918-5.082-1.3047-1.3633-3.1094-2.1328-4.9961-2.1328-1.8867 0-3.6914 0.76953-4.9961 2.1328s-1.9961 3.1992-1.918 5.082v32.008c-0.17188 18.254 2.6953 36.414 8.4766 53.727-4.6797 3.5312-10.195 10.625-7.957 20.445 2.1641 9.5117 11.387 13.535 17.785 15.18v36.852c-3.4375 4.5586-5.0742 10.227-4.5938 15.914 0.48047 5.6914 3.0469 11.004 7.2031 14.918-0.125 12.816-1 33.5-2.5312 61.559-0.21875 3.8125 2.6953 7.0781 6.5078 7.293s7.0781-2.6992 7.293-6.5078c1.6328-28.629 2.5312-49.691 2.6328-62.723l19.57-19.066c2.582-2.6875 2.5742-6.9375-0.019531-9.6133-2.5938-2.6758-6.8438-2.8164-9.6094-0.31641l-16.586 16.066h0.003906c-0.33594-0.80859-0.55469-1.6602-0.66016-2.5312-0.28516-2.7383 0.64062-5.4648 2.5312-7.4648l0.15234-0.15234 41.023-40.898c1.3828-1.2773 2.1875-3.0586 2.2266-4.9414 0.039062-1.8828-0.69141-3.6953-2.0195-5.0273-1.3281-1.332-3.1445-2.0664-5.0234-2.0352-1.8828 0.035156-3.668 0.83203-4.9492 2.2109l-29.324 29.199v-28.488c0-3.5938-2.7461-6.5859-6.3242-6.8945-3.7969-0.31641-11.082-2.5312-11.789-5.5898-0.88672-3.7969 2.3906-6.1484 3.3281-6.7188 2.9492-1.2656 19.711-9.0586 30.562-23.809 8.5156 8.0703 25.758 21.875 55.145 35.32 6.1953 2.875 11.438 7.4648 15.105 13.227 3.6719 5.7617 5.6172 12.453 5.6016 19.285v100.86c-0.019531 5.2852-2.3242 10.301-6.3242 13.754l-29.527 25.707 20.496-76.223c0.86328-3.6406-1.3242-7.3086-4.9375-8.2812s-7.3438 1.1055-8.4219 4.6875l-26.379 98.109c-1.7109 3.4297-2.0625 7.3828-0.98047 11.062 1.082 3.6797 3.5156 6.8125 6.8125 8.7734l6.0352 3.6055c0.41797 0.23828 0.67969 0.67969 0.68359 1.1641 0.039063 0.5-0.19922 0.98438-0.62109 1.2617l-51.438 34.449c-0.80859 0.58594-1.8906 0.64062-2.7539 0.13672-0.86719-0.50391-1.3516-1.4688-1.2422-2.4648 0.88672-12.246 2.2266-31.234 3.6055-52.184 0.039063-0.59766-0.007812-1.1992-0.14062-1.7852l42.684-79.445c1.6133-3.3359 0.30859-7.3555-2.957-9.1055-3.2656-1.7539-7.332-0.625-9.2266 2.5664l-51.184 95.262v-0.003906c-0.86719 1.6172-1.0586 3.5117-0.53125 5.2656 0.53125 1.7578 1.7344 3.2305 3.3516 4.0977 0.91406 0.48438 1.9258 0.76172 2.9609 0.80859-0.91016 13.348-1.7461 25.062-2.3516 33.523-0.23828 3.0625 0.39844 6.1289 1.8359 8.8398 1.4336 2.7148 3.6094 4.9648 6.2734 6.4961l0.15234 0.074219-0.80078 11.84h-0.20312 0.003906c-6.2539 0.007813-12.246 2.4961-16.668 6.9141-4.4219 4.4219-6.9062 10.418-6.9141 16.668v11.613h-17.371c-1.832-0.003906-3.5938 0.72266-4.8906 2.0195-1.3008 1.2969-2.0273 3.0547-2.0273 4.8867zm116.61-407.82c7.6719 0.011719 13.934 6.1328 14.117 13.801-4.2695-2.5352-9.1445-3.8711-14.109-3.8711-4.9688 0-9.8398 1.3359-14.113 3.8711 0.1875-7.6641 6.4414-13.785 14.105-13.801zm-14.145 56.941v-19.055c-0.11328-3.8203 1.3242-7.5195 3.9844-10.262 2.6641-2.7422 6.3203-4.2891 10.141-4.2891 3.8242 0 7.4805 1.5469 10.141 4.2891 2.6641 2.7422 4.0977 6.4414 3.9844 10.262v12.133c0 10.691-4.9336 16.191-14.637 16.445-5.1992-3.0508-9.7539-6.0078-13.688-8.7656 0.039062-0.25 0.0625-0.50391 0.074218-0.75781zm-64.379 332.36c0-5.3828 4.3594-9.7461 9.7422-9.7539h59.09c1.8867 0.082031 3.7227-0.60938 5.0859-1.918 1.3594-1.3047 2.1328-3.1094 2.1328-4.9961s-0.77344-3.6914-2.1328-4.9961c-1.3633-1.3047-3.1992-1.9961-5.0859-1.918h-45.023l0.79688-10.766c1.1992-0.43359 2.3398-1.0078 3.4023-1.707l51.398-34.461h0.003906c4.3633-2.8867 6.9297-7.8203 6.793-13.051-0.13672-5.2305-2.957-10.023-7.4648-12.68l-6.0352-3.5938c-0.38672-0.22656-0.64062-0.62891-0.67969-1.0742-0.046876-0.44922 0.13281-0.89062 0.48047-1.1758l34.688-30.172 7.2227 108.67h-8.1719v-0.003906c-3.7031 0.16016-6.625 3.207-6.625 6.9141 0 3.707 2.9219 6.7539 6.625 6.9141h22.191-0.003906c5.3828 0.007812 9.7422 4.3711 9.7422 9.7539v11.613h-138.17z"/>
  <path d="m461.96 553.08c-0.003907 1.8359 0.72266 3.5977 2.0156 4.8945 1.2969 1.2969 3.0547 2.0273 4.8906 2.0273h2.9727c3.7031-0.16016 6.625-3.207 6.625-6.9141 0-3.707-2.9219-6.7539-6.625-6.9141h-2.9727c-1.832-0.003906-3.5938 0.72266-4.8867 2.0195-1.2969 1.2969-2.0234 3.0547-2.0195 4.8867z"/>
 </g>
</svg>
